<?xml version="1.0" encoding="UTF-8"?>
<svg id="Layer_2" data-name="Layer 2" xmlns="http://www.w3.org/2000/svg" xmlns:xlink="http://www.w3.org/1999/xlink" viewBox="0 0 144.12 153.32">
  <defs>
    <style>
      .cls-1 {
        fill: #fff;
      }

      .cls-2 {
        fill: #e09b2d;
      }

      .cls-3 {
        fill: #333;
      }

      .cls-4 {
        fill: #754c29;
      }

      .cls-5 {
        fill: url(#radial-gradient);
      }

      .cls-6 {
        fill: none;
      }

      .cls-7 {
        fill: #fff200;
      }

      .cls-8 {
        fill: #bcbec0;
      }

      .cls-9 {
        fill: url(#linear-gradient);
      }
    </style>
    <linearGradient id="linear-gradient" x1="28.54" y1="88.62" x2="28.54" y2="140.32" gradientUnits="userSpaceOnUse">
      <stop offset=".35" stop-color="#2484c6"/>
      <stop offset="1" stop-color="#2484c6" stop-opacity="0"/>
    </linearGradient>
    <radialGradient id="radial-gradient" cx="38.32" cy="105.6" fx="30.45" fy="105.6" r="8.1" gradientUnits="userSpaceOnUse">
      <stop offset="0" stop-color="#fff33b"/>
      <stop offset=".04" stop-color="#fee62d"/>
      <stop offset=".12" stop-color="#fdd51b"/>
      <stop offset=".2" stop-color="#fdca0f"/>
      <stop offset=".28" stop-color="#fdc70c"/>
      <stop offset=".67" stop-color="#f3903f"/>
      <stop offset=".89" stop-color="#ed683c"/>
      <stop offset="1" stop-color="#e93e3a"/>
    </radialGradient>
  </defs>
  <g id="Layer_1-2" data-name="Layer 1">
    <rect class="cls-6" x="64.62" y="71.16" width="51.7" height="82.16"/>
    <rect class="cls-7" x="64.62" y="9" width="51.7" height="51.7"/>
    <path class="cls-9" d="M54.39,88.62v51.7h-3.54l-16.95-18.65-6.87,7.56-13.59-14.95-10.75,11.83v-37.49H54.39Zm-7.97,16.97c0-4.48-3.63-8.1-8.1-8.1s-8.1,3.63-8.1,8.1,3.63,8.1,8.1,8.1,8.1-3.63,8.1-8.1Z"/>
    <rect class="cls-6" x="2.69" width="51.7" height="82.16"/>
    <polygon class="cls-2" points="33.9 121.67 50.85 140.32 37.11 140.32 27.03 129.23 33.9 121.67"/>
    <path class="cls-5" d="M38.32,97.5c4.48,0,8.1,3.63,8.1,8.1s-3.63,8.1-8.1,8.1-8.1-3.63-8.1-8.1c0-4.48,3.63-8.1,8.1-8.1Z"/>
    <polygon class="cls-4" points="27.03 129.23 37.11 140.32 2.69 140.32 2.69 126.11 13.44 114.29 27.03 129.23"/>
    <path class="cls-8" d="M54.39,6.31H2.69c-1.49,0-2.69,1.03-2.69,2.3V78.86c0,1.27,1.21,2.3,2.69,2.3H54.39c1.49,0,2.69-1.03,2.69-2.3V8.61c0-1.27-1.2-2.3-2.69-2.3Zm-2.69,70.25H5.39V10.91H51.7V76.56h0Z"/>
    <path class="cls-8" d="M54.39,85.93H2.69c-1.49,0-2.69,1.21-2.69,2.69v51.7c0,1.49,1.21,2.69,2.69,2.69H54.39c1.49,0,2.69-1.21,2.69-2.69v-51.7c0-1.49-1.2-2.69-2.69-2.69Zm-2.69,5.39v45.93l-15.8-17.39c-.51-.56-1.23-.88-1.99-.88s-1.48,.32-1.99,.88l-4.88,5.37-11.6-12.76c-.51-.56-1.23-.88-1.99-.88s-1.48,.32-1.99,.88l-6.06,6.67v-27.83H51.7Zm-6.93,46.31h-6.46l-7.63-8.39,3.23-3.56,10.86,11.95ZM5.39,127.15l8.06-8.86,17.58,19.34H5.39v-10.47Z"/>
    <path class="cls-8" d="M116.32,68.47h-51.7c-1.49,0-2.69,1.03-2.69,2.29v69.96c0,1.27,1.21,2.29,2.69,2.29h51.7c1.49,0,2.69-1.03,2.69-2.29V70.76c0-1.27-1.21-2.29-2.69-2.29Zm-2.69,69.96h-46.31V73.05h46.31v65.37Z"/>
    <path class="cls-8" d="M116.32,6.31h-51.7c-1.49,0-2.69,1.21-2.69,2.69V60.7c0,1.49,1.21,2.69,2.69,2.69h51.7c1.49,0,2.69-1.21,2.69-2.69V9c0-1.49-1.21-2.69-2.69-2.69Zm-2.69,51.7h-46.31V11.69h46.31V58Z"/>
    <path class="cls-3" d="M77.28,30.54c1.49,0,2.69-1.21,2.69-2.69v-3.77h7.81v22.08h-2.69c-1.49,0-2.69,1.21-2.69,2.69s1.21,2.69,2.69,2.69h10.77c1.49,0,2.69-1.21,2.69-2.69s-1.21-2.69-2.69-2.69h-2.69V24.08h7.81v3.77c0,1.49,1.21,2.69,2.69,2.69s2.69-1.21,2.69-2.69v-6.46c0-1.49-1.21-2.69-2.69-2.69h-26.39c-1.49,0-2.69,1.21-2.69,2.69v6.46c0,1.49,1.21,2.69,2.69,2.69Z"/>
    <path class="cls-1" d="M38.32,116.39c5.95,0,10.8-4.84,10.8-10.8s-4.84-10.8-10.8-10.8-10.8,4.84-10.8,10.8c0,5.95,4.84,10.8,10.8,10.8Zm0-16.21c2.98,0,5.41,2.43,5.41,5.41s-2.43,5.41-5.41,5.41-5.41-2.43-5.41-5.41,2.43-5.41,5.41-5.41Z"/>
    <path class="cls-1" d="M23.16,22.63h19.39c1.49,0,2.69-.98,2.69-2.19s-1.21-2.19-2.69-2.19H23.16c-1.49,0-2.69,.98-2.69,2.19s1.2,2.19,2.69,2.19Z"/>
    <path class="cls-1" d="M14.54,32.13h28c1.49,0,2.69-.98,2.69-2.19s-1.21-2.19-2.69-2.19H14.54c-1.49,0-2.69,.98-2.69,2.19s1.21,2.19,2.69,2.19Z"/>
    <path class="cls-1" d="M14.54,41.62h28c1.49,0,2.69-.98,2.69-2.19s-1.21-2.19-2.69-2.19H14.54c-1.49,0-2.69,.98-2.69,2.19s1.21,2.19,2.69,2.19Z"/>
    <path class="cls-1" d="M14.54,51.11h28c1.49,0,2.69-.98,2.69-2.19s-1.21-2.19-2.69-2.19H14.54c-1.49,0-2.69,.98-2.69,2.19s1.21,2.19,2.69,2.19Z"/>
    <path class="cls-1" d="M14.54,60.61h28c1.49,0,2.69-.98,2.69-2.19s-1.21-2.19-2.69-2.19H14.54c-1.49,0-2.69,.98-2.69,2.19s1.21,2.19,2.69,2.19Z"/>
    <path class="cls-1" d="M14.54,70.1h11.85c1.49,0,2.69-.98,2.69-2.19s-1.21-2.19-2.69-2.19H14.54c-1.49,0-2.69,.98-2.69,2.19s1.21,2.19,2.69,2.19Z"/>
    <path class="cls-1" d="M85.08,84.74h19.39c1.49,0,2.69-.97,2.69-2.17s-1.21-2.17-2.69-2.17h-19.39c-1.49,0-2.69,.97-2.69,2.17s1.21,2.17,2.69,2.17Z"/>
    <path class="cls-1" d="M76.47,94.12h28c1.49,0,2.69-.97,2.69-2.17s-1.21-2.17-2.69-2.17h-28c-1.49,0-2.69,.97-2.69,2.17,0,1.2,1.21,2.17,2.69,2.17Z"/>
    <path class="cls-1" d="M76.47,103.5h28c1.49,0,2.69-.97,2.69-2.17s-1.21-2.17-2.69-2.17h-28c-1.49,0-2.69,.97-2.69,2.17,0,1.2,1.21,2.17,2.69,2.17Z"/>
    <path class="cls-1" d="M76.47,112.89h28c1.49,0,2.69-.97,2.69-2.17s-1.21-2.17-2.69-2.17h-28c-1.49,0-2.69,.97-2.69,2.17,0,1.2,1.21,2.17,2.69,2.17Z"/>
    <path class="cls-1" d="M76.47,122.27h28c1.49,0,2.69-.97,2.69-2.17s-1.21-2.17-2.69-2.17h-28c-1.49,0-2.69,.97-2.69,2.17,0,1.2,1.21,2.17,2.69,2.17Z"/>
    <path class="cls-1" d="M76.47,131.65h11.85c1.49,0,2.69-.97,2.69-2.17s-1.21-2.17-2.69-2.17h-11.85c-1.49,0-2.69,.97-2.69,2.17,0,1.2,1.21,2.17,2.69,2.17Z"/>
    <path class="cls-1" d="M139.52,132.09l-2.76,2.52V14.7l2.76,2.52c.53,.48,1.22,.72,1.9,.72s1.38-.24,1.9-.72c1.05-.96,1.05-2.52,0-3.48l-7.36-6.72c-1.05-.96-2.76-.96-3.81,0l-7.36,6.72c-1.05,.96-1.05,2.52,0,3.48,1.05,.96,2.76,.96,3.81,0l2.76-2.52v119.92l-2.76-2.52c-1.05-.96-2.76-.96-3.81,0s-1.05,2.52,0,3.48l7.36,6.72c.53,.48,1.22,.72,1.9,.72s1.38-.24,1.9-.72l7.36-6.72c1.05-.96,1.05-2.52,0-3.48-1.05-.96-2.76-.96-3.81,0Z"/>
  </g>
</svg>