<?xml version="1.0" encoding="utf-8"?>
<!-- Generator: Adobe Illustrator 26.5.0, SVG Export Plug-In . SVG Version: 6.00 Build 0)  -->
<svg version="1.1" id="Layer_2_00000093163585330527989350000017968268026812121997_"
	 xmlns="http://www.w3.org/2000/svg" xmlns:xlink="http://www.w3.org/1999/xlink" x="0px" y="0px" viewBox="0 0 170.5 144.3"
	 style="enable-background:new 0 0 170.5 144.3;" xml:space="preserve">
<style type="text/css">
	.st0{fill:#F1F2F2;}
	.st1{fill:#A7A9AC;}
	.st2{fill:#D1D3D4;}
	.st3{fill:#F7941D;}
	.st4{fill:#3C2415;}
	.st5{fill:#F95428;}
	.st6{fill:url(#SVGID_1_);}
	.st7{fill:url(#SVGID_00000075845769781106942870000014910194625106132923_);}
	.st8{fill:url(#SVGID_00000135648928153808162940000008849260835395726220_);}
	.st9{fill:#E09B2D;}
	.st10{fill:#603913;}
	.st11{fill:#BCBEC0;}
	.st12{fill:#FFFFFF;}
</style>
<g id="Layer_1-2">
	<g>
		<polygon class="st0" points="95.8,121.8 91,141.4 55.9,141.4 60.7,121.8 		"/>
		<path class="st1" d="M116.5,2.9h9.3c-4.9,0-8.8,4-8.8,8.8v65c0,4.9,3.9,8.8,8.8,8.8h-9.3c-4.9,0-8.8-3.9-8.8-8.8v-65
			C107.7,6.9,111.6,2.9,116.5,2.9z"/>
		<g>
			<path class="st2" d="M167.6,11.7v6.3H117v-6.3c0-4.9,3.9-8.8,8.8-8.8h33C163.7,2.9,167.6,6.9,167.6,11.7L167.6,11.7z"/>
			<path class="st2" d="M162,70.1h5.6v6.7c0,4.9-3.9,8.8-8.8,8.8h-33c-4.9,0-8.8-3.9-8.8-8.8v-6.7H162z"/>
		</g>
		<polygon class="st3" points="146.5,53 162,70.1 149.4,70.1 140.2,59.9 		"/>
		<polygon class="st4" points="140.2,59.9 149.4,70.1 117,70.1 117,57.1 117.8,57.1 127.7,46.2 		"/>
		<path class="st5" d="M150.6,30.8c4.1,0,7.4,3.3,7.4,7.4s-3.3,7.4-7.4,7.4s-7.4-3.3-7.4-7.4S146.5,30.8,150.6,30.8z"/>
		<g>
			
				<linearGradient id="SVGID_1_" gradientUnits="userSpaceOnUse" x1="142.31" y1="127.93" x2="142.31" y2="75.95" gradientTransform="matrix(1 0 0 -1 0 146)">
				<stop  offset="0" style="stop-color:#2484C6"/>
				<stop  offset="1" style="stop-color:#2484C6;stop-opacity:0"/>
			</linearGradient>
			<path class="st6" d="M167.6,18.1v52H162L146.5,53l-6.3,7l-12.5-13.7l-9.9,10.9H117v-39H167.6L167.6,18.1z M158,38.2
				c0-4.1-3.3-7.4-7.4-7.4s-7.4,3.3-7.4,7.4s3.3,7.4,7.4,7.4S158,42.3,158,38.2z"/>
			
				<linearGradient id="SVGID_00000096030118713838558720000005635171914137133498_" gradientUnits="userSpaceOnUse" x1="86.37" y1="118" x2="86.37" y2="42.3" gradientTransform="matrix(1 0 0 -1 0 146)">
				<stop  offset="0" style="stop-color:#2484C6"/>
				<stop  offset="1" style="stop-color:#2484C6;stop-opacity:0"/>
			</linearGradient>
			<path style="fill:url(#SVGID_00000096030118713838558720000005635171914137133498_);" d="M157.2,85.6v18.1h-55.8L74.4,74
				l-10.9,12L41.9,62.3L15.5,89.4V36.2c0-4.5,3.7-8.2,8.2-8.2h83.9v48.8c0,4.9,3.9,8.8,8.8,8.8L157.2,85.6L157.2,85.6z M94.4,48.5
				c0-7.1-5.8-12.9-12.9-12.9s-12.9,5.8-12.9,12.9s5.8,12.9,12.9,12.9S94.4,55.6,94.4,48.5z"/>
		</g>
		
			<radialGradient id="SVGID_00000180325265164758379240000003367547261588261264_" cx="81.47" cy="97.53" r="12.89" gradientTransform="matrix(1 0 0 -1 0 146)" gradientUnits="userSpaceOnUse">
			<stop  offset="0" style="stop-color:#FFF33B"/>
			<stop  offset="4.000000e-02" style="stop-color:#FEE62D"/>
			<stop  offset="0.12" style="stop-color:#FDD51B"/>
			<stop  offset="0.2" style="stop-color:#FDCA0F"/>
			<stop  offset="0.28" style="stop-color:#FDC70C"/>
			<stop  offset="0.67" style="stop-color:#F3903F"/>
			<stop  offset="0.89" style="stop-color:#ED683C"/>
			<stop  offset="1" style="stop-color:#E93E3A"/>
		</radialGradient>
		<path style="fill:url(#SVGID_00000180325265164758379240000003367547261588261264_);" d="M81.5,35.6c7.1,0,12.9,5.8,12.9,12.9
			s-5.8,12.9-12.9,12.9s-12.9-5.8-12.9-12.9S74.3,35.6,81.5,35.6z"/>
		<polygon class="st9" points="74.4,74 101.4,103.7 79.6,103.7 63.5,86.1 		"/>
		<polygon class="st10" points="63.5,86.1 79.6,103.7 15.5,103.7 15.5,89.4 41.9,62.3 		"/>
		<path class="st1" d="M12.4,28h11.3c-4.5,0-8.2,3.7-8.2,8.2v77.4c0,4.5,3.7,8.2,8.2,8.2H12.4c-5.3,0-9.5-4.3-9.5-9.5V37.5
			C2.9,32.3,7.2,28,12.4,28z"/>
		<path class="st11" d="M157.2,103.7v9.9c0,4.5-3.7,8.2-8.2,8.2H23.7c-4.5,0-8.2-3.7-8.2-8.2v-9.9H157.2z"/>
		<g>
			<path class="st12" d="M81.5,32.7c-8.7,0-15.8,7.1-15.8,15.8s7.1,15.8,15.8,15.8s15.8-7.1,15.8-15.8S90.2,32.7,81.5,32.7z
				 M81.5,58.4c-5.5,0-10-4.5-10-10s4.5-10,10-10s10,4.5,10,10S87,58.4,81.5,58.4z"/>
			<path class="st12" d="M150.6,27.9c-5.7,0-10.4,4.7-10.4,10.3s4.6,10.3,10.4,10.3s10.4-4.7,10.4-10.3
				C160.9,32.5,156.3,27.9,150.6,27.9z M150.6,42.8c-2.5,0-4.5-2-4.5-4.5s2-4.5,4.5-4.5s4.5,2,4.5,4.5S153.1,42.8,150.6,42.8z"/>
			<path class="st12" d="M158.8,0h-42.3c-6.5,0-11.7,5.3-11.7,11.7v13.4H87.3c0,0,0,0,0,0H23.7c0,0,0,0,0,0H12.4
				C5.6,25.1,0,30.7,0,37.5v74.8c0,6.9,5.6,12.4,12.4,12.4H57l-3.9,16c0,0,0,0,0,0c0,0.1,0,0.1,0,0.2c0,0,0,0.1,0,0.1
				c0,0.1,0,0.1,0,0.2c0,0,0,0.1,0,0.1c0,0,0,0,0,0c0,0.1,0,0.2,0,0.3c0,0,0,0,0,0c0,0.1,0,0.2,0,0.3c0,0,0,0,0,0
				c0,0.1,0,0.2,0.1,0.3c0,0,0,0.1,0,0.1c0,0.1,0,0.1,0.1,0.2c0,0,0,0.1,0,0.1c0,0.1,0.1,0.1,0.1,0.2c0,0,0,0.1,0,0.1
				c0,0.1,0.1,0.1,0.1,0.2c0,0,0,0,0,0.1c0,0,0,0,0,0c0,0.1,0.1,0.1,0.2,0.2c0,0,0,0,0,0.1c0.1,0.1,0.2,0.1,0.2,0.2c0,0,0,0,0.1,0.1
				c0.1,0.1,0.1,0.1,0.2,0.1c0,0,0.1,0,0.1,0.1c0.1,0,0.1,0.1,0.2,0.1c0,0,0.1,0,0.1,0c0.1,0,0.1,0.1,0.2,0.1c0,0,0.1,0,0.1,0
				c0.1,0,0.1,0,0.2,0.1c0,0,0.1,0,0.1,0c0.1,0,0.2,0,0.2,0c0,0,0,0,0.1,0c0.1,0,0.2,0,0.3,0H114c1.6,0,2.9-1.3,2.9-2.9
				s-1.3-2.9-2.9-2.9H94.7l3.4-13.8H149c6.1,0,11.1-5,11.1-11.1V88.4c5.8-0.7,10.4-5.6,10.4-11.7v-65C170.5,5.3,165.3,0,158.8,0z
				 M164.7,11.7v3.4h-44.8v-3.4c0-3.3,2.7-5.9,5.9-5.9h33C162.1,5.8,164.7,8.5,164.7,11.7z M119.9,58.9L120,59l7.7-8.5l15.1,16.6
				h-22.9L119.9,58.9L119.9,58.9L119.9,58.9z M150.7,67.1l-6.6-7.2l2.4-2.6l8.9,9.8L150.7,67.1L150.7,67.1z M163.3,67.1L148.7,51
				c-0.6-0.6-1.3-1-2.1-1s-1.6,0.3-2.1,1l-4.2,4.6l-10.3-11.4c-0.6-0.6-1.3-1-2.2-1s-1.6,0.3-2.2,1l-5.7,6.2V21h44.8v46.2H163.3
				L163.3,67.1z M110.6,11.7c0-3,2.2-5.4,5.1-5.8c-1,1.7-1.6,3.7-1.6,5.8v65c0,2.1,0.6,4.1,1.6,5.8c-2.8-0.4-5.1-2.9-5.1-5.8V11.7
				L110.6,11.7z M116.5,88.5h37.8v12.3h-51.6L76.6,72.1c-0.6-0.6-1.3-0.9-2.2-0.9s-1.6,0.3-2.2,0.9l-8.8,9.7L44.1,60.3
				c-0.5-0.6-1.3-0.9-2.1-1c-0.8,0-1.6,0.3-2.1,0.9l-21.4,22v-46c0-2.9,2.4-5.3,5.3-5.3h81v45.8C104.8,83.2,110,88.5,116.5,88.5z
				 M18.4,90.6l23.4-24.1L73,100.8H18.4L18.4,90.6L18.4,90.6z M80.8,100.8L67.5,86.1l7-7.7l20.4,22.4H80.8L80.8,100.8z M5.8,112.3
				V37.5c0-3.7,3-6.6,6.6-6.6H14c-0.9,1.6-1.4,3.4-1.4,5.3v77.4c0,1.9,0.5,3.7,1.4,5.3h-1.5C8.8,118.9,5.8,115.9,5.8,112.3z
				 M88.7,138.5H59.6l3.4-13.8h29.1C92.1,124.7,88.7,138.5,88.7,138.5z M149,118.9H23.7c-2.9,0-5.3-2.4-5.3-5.3v-7h135.9v7
				C154.3,116.5,151.9,118.9,149,118.9z M158.8,82.7h-33c-3.2,0-5.9-2.7-5.9-5.9V73h44.8v3.8C164.7,80,162.1,82.7,158.8,82.7
				L158.8,82.7z"/>
		</g>
	</g>
</g>
</svg>
