<?xml version="1.0" encoding="UTF-8"?>
<svg id="Layer_2" data-name="Layer 2" xmlns="http://www.w3.org/2000/svg" viewBox="0 0 153.09 124.62">
  <defs>
    <style>
      .cls-1 {
        fill: #fff;
        stroke: #231f20;
        stroke-miterlimit: 10;
      }

      .cls-2 {
        fill: #9b8579;
      }

      .cls-3 {
        fill: #ffe6b8;
      }

      .cls-4 {
        fill: #2bb673;
      }

      .cls-5 {
        fill: #1c75bc;
      }
    </style>
  </defs>
  <g id="Layer_1-2" data-name="Layer 1">
    <polygon class="cls-3" points="149.56 21.95 42.78 21.95 42.78 12.62 19.72 12.62 19.72 21.95 3.53 21.95 3.53 99.38 149.56 99.38 149.56 21.95"/>
    <g>
      <rect class="cls-2" x="59.98" y="99.37" width="33.12" height="21.71"/>
      <polygon class="cls-2" points="19.72 21.95 19.72 12.62 42.78 12.62 42.78 21.95 149.56 21.95 149.56 3.53 3.53 3.53 3.53 21.95 19.72 21.95"/>
    </g>
    <rect class="cls-4" x="15.65" y="35.49" width="121.79" height="52.41"/>
    <polygon class="cls-5" points="128.35 99.38 98.57 99.38 98.57 57.33 113.46 44.03 128.35 57.33 128.35 99.38"/>
    <g>
      <path class="cls-1" d="M106.88,124.12c1.67,0,3.03-1.36,3.03-3.03s-1.36-3.03-3.03-3.03h-10.75v-15.65h53.42c1.67,0,3.03-1.36,3.03-3.03V3.53c0-1.67-1.36-3.03-3.03-3.03H3.53C1.86,.5,.5,1.86,.5,3.53V99.38c0,1.67,1.36,3.03,3.03,3.03H56.95v15.65h-10.75c-1.67,0-3.03,1.36-3.03,3.03s1.36,3.03,3.03,3.03h60.68ZM6.56,6.56H146.53v12.36H45.81v-6.3c0-1.67-1.36-3.03-3.03-3.03H19.72c-1.67,0-3.03,1.36-3.03,3.03v6.3H6.56V6.56ZM90.08,118.06h-27.07v-15.65h27.07v15.65Zm44.33-79.53v46.35h-3.03v-27.55c0-.86-.37-1.69-1.01-2.26l-14.89-13.29c-1.15-1.03-2.89-1.03-4.03,0l-2.58,2.3v-5.55h25.55Zm-24.7-6.06c.55-.56,1.31-.91,2.15-.91s1.6,.35,2.15,.91h-4.29Zm-6.78,16.91l-6.38,5.7c-.64,.57-1.01,1.4-1.01,2.26v27.55H18.68V38.52H102.8v9.33c0,.52,.05,1.02,.13,1.52Zm-1.34,46.98V58.68l4.4-3.93c1.58,1.34,3.63,2.16,5.86,2.16,1.67,0,3.03-1.36,3.03-3.03s-1.36-3.03-3.03-3.03c-.43,0-.84-.09-1.2-.25l2.8-2.5,11.86,10.59v37.66h-23.73Zm-95.04,0V24.98h13.16c1.67,0,3.03-1.36,3.03-3.03v-6.3h16.99v6.3c0,1.67,1.36,3.03,3.03,3.03h103.75V96.35h-15.15v-5.41h6.06c1.67,0,3.03-1.36,3.03-3.03V35.49c0-1.67-1.36-3.03-3.03-3.03h-16.77c-.95-3.99-4.54-6.97-8.81-6.97s-7.87,2.98-8.81,6.97H15.65c-1.67,0-3.03,1.36-3.03,3.03v52.41c0,1.67,1.36,3.03,3.03,3.03H95.54v5.41H6.56Z"/>
      <path class="cls-1" d="M139.26,15.8h.61c1.67,0,3.03-1.36,3.03-3.03s-1.36-3.03-3.03-3.03h-.61c-1.67,0-3.03,1.36-3.03,3.03,0,1.67,1.36,3.03,3.03,3.03Z"/>
      <path class="cls-1" d="M128.35,15.8h.61c1.67,0,3.03-1.36,3.03-3.03s-1.36-3.03-3.03-3.03h-.61c-1.67,0-3.03,1.36-3.03,3.03s1.36,3.03,3.03,3.03Z"/>
      <path class="cls-1" d="M117.45,15.8h.61c1.67,0,3.03-1.36,3.03-3.03s-1.36-3.03-3.03-3.03h-.61c-1.67,0-3.03,1.36-3.03,3.03s1.36,3.03,3.03,3.03Z"/>
      <path class="cls-1" d="M82.91,45.19h-1.21c-1.67,0-3.03,1.36-3.03,3.03s1.36,3.03,3.03,3.03h1.21c1.67,0,3.03-1.36,3.03-3.03s-1.36-3.03-3.03-3.03Z"/>
      <path class="cls-1" d="M71.09,45.19H29.28c-1.67,0-3.03,1.36-3.03,3.03s1.36,3.03,3.03,3.03h41.81c1.67,0,3.03-1.36,3.03-3.03s-1.36-3.03-3.03-3.03Z"/>
      <path class="cls-1" d="M55.64,56.7H29.28c-1.67,0-3.03,1.36-3.03,3.03s1.36,3.03,3.03,3.03h26.36c1.67,0,3.03-1.36,3.03-3.03s-1.36-3.03-3.03-3.03Z"/>
    </g>
  </g>
</svg>