<?xml version="1.0" encoding="utf-8"?>
<!-- Generator: Adobe Illustrator 26.5.0, SVG Export Plug-In . SVG Version: 6.00 Build 0)  -->
<svg version="1.1" id="Layer_2_00000026164802123436681660000011521038247545146288_"
	 xmlns="http://www.w3.org/2000/svg" xmlns:xlink="http://www.w3.org/1999/xlink" x="0px" y="0px" viewBox="0 0 150 150"
	 style="enable-background:new 0 0 150 150;" xml:space="preserve">
<style type="text/css">
	.st0{fill:#0026AA;}
	.st1{fill:#00AEEF;}
	.st2{fill:url(#SVGID_1_);}
	.st3{fill:#FFFFFF;}
	.st4{fill:#E6E7E8;}
	.st5{fill:#939598;}
	.st6{fill:#BCBEC0;}
	.st7{fill:#EF4136;}
	.st8{fill:#008F9F;}
	.st9{fill:#FBB040;}
</style>
<g>
	<path class="st0" d="M137.5,52.5c-1.4,0-2.5-1.1-2.5-2.5V40c0-1.4,1.1-2.5,2.5-2.5s2.5,1.1,2.5,2.5v10
		C140,51.4,138.9,52.5,137.5,52.5z"/>
	<path class="st0" d="M142.5,47.5h-10c-1.4,0-2.5-1.1-2.5-2.5s1.1-2.5,2.5-2.5h10c1.4,0,2.5,1.1,2.5,2.5S143.9,47.5,142.5,47.5z"/>
	<path class="st0" d="M12.5,2.5c0,5.5-4.5,10-10,10c5.5,0,10,4.5,10,10c0-5.5,4.5-10,10-10C17,12.5,12.5,8,12.5,2.5"/>
	<path class="st0" d="M22.5,112.5c0,1.4-1.1,2.5-2.5,2.5s-2.5-1.1-2.5-2.5s1.1-2.5,2.5-2.5S22.5,111.1,22.5,112.5"/>
	<path class="st0" d="M10,67.5c0,1.4-1.1,2.5-2.5,2.5S5,68.9,5,67.5S6.1,65,7.5,65S10,66.1,10,67.5"/>
	<path class="st0" d="M132.5,92.5c0,1.4-1.1,2.5-2.5,2.5s-2.5-1.1-2.5-2.5s1.1-2.5,2.5-2.5S132.5,91.1,132.5,92.5"/>
	<path class="st0" d="M150,145c0,1.4-1.1,2.5-2.5,2.5s-2.5-1.1-2.5-2.5s1.1-2.5,2.5-2.5S150,143.6,150,145"/>
</g>
<path class="st1" d="M107.6,147.5H42.4c-4.1,0-7.4-3.3-7.4-7.4V9.9c0-4.1,3.3-7.4,7.4-7.4h65.2c4.1,0,7.4,3.3,7.4,7.4v130.2
	C115,144.2,111.7,147.5,107.6,147.5"/>
<g>
	<path class="st1" d="M82.5,137.5c0,4.1-3.4,7.5-7.5,7.5s-7.5-3.4-7.5-7.5s3.4-7.5,7.5-7.5S82.5,133.4,82.5,137.5"/>
	<polygon class="st1" points="35,127.5 115,127.5 115,17.5 35,17.5 	"/>
</g>
<radialGradient id="SVGID_1_" cx="107.55" cy="83" r="51.5352" gradientTransform="matrix(1 0 0 1 0 -8)" gradientUnits="userSpaceOnUse">
	<stop  offset="0" style="stop-color:#2484C6"/>
	<stop  offset="1" style="stop-color:#2484C6;stop-opacity:0"/>
</radialGradient>
<path class="st2" d="M107.6,2.5h-7.5c4.1,0,7.4,3.3,7.4,7.4v130.2c0,4.1-3.3,7.4-7.4,7.4h7.5c4.1,0,7.4-3.3,7.4-7.4V9.9
	C115,5.8,111.7,2.5,107.6,2.5"/>
<path class="st3" d="M42.4,2.5h7.5c-4.1,0-7.4,3.3-7.4,7.4v130.2c0,4.1,3.3,7.4,7.4,7.4h-7.5c-4.1,0-7.4-3.3-7.4-7.4V9.9
	C35,5.8,38.3,2.5,42.4,2.5"/>
<path class="st3" d="M107.6,150H42.4c-5.5,0-9.9-4.4-9.9-9.9V9.9c0-5.5,4.4-9.9,9.9-9.9h65.2c5.5,0,9.9,4.4,9.9,9.9v130.2
	C117.5,145.6,113.1,150,107.6,150z M42.4,5c-2.7,0-4.9,2.2-4.9,4.9v130.2c0,2.7,2.2,4.9,4.9,4.9h65.2c2.7,0,4.9-2.2,4.9-4.9V9.9
	c0-2.7-2.2-4.9-4.9-4.9L42.4,5L42.4,5z"/>
<path class="st3" d="M117.5,130h-85V15h85V130L117.5,130z M37.5,125h75V20h-75V125z"/>
<path class="st4" d="M85,12.5H72.5c-1.4,0-2.5-1.1-2.5-2.5s1.1-2.5,2.5-2.5H85c1.4,0,2.5,1.1,2.5,2.5S86.4,12.5,85,12.5z"/>
<path class="st4" d="M65,12.5h-2.5c-1.4,0-2.5-1.1-2.5-2.5s1.1-2.5,2.5-2.5H65c1.4,0,2.5,1.1,2.5,2.5S66.4,12.5,65,12.5z"/>
<path class="st5" d="M32.5,30c-1.4,0-2.5-1.1-2.5-2.5V25c0-1.4,1.1-2.5,2.5-2.5c1.4,0,2.5,1.1,2.5,2.5v2.5C35,28.9,33.9,30,32.5,30z
	"/>
<path class="st5" d="M32.5,40c-1.4,0-2.5-1.1-2.5-2.5V35c0-1.4,1.1-2.5,2.5-2.5c1.4,0,2.5,1.1,2.5,2.5v2.5C35,38.9,33.9,40,32.5,40z
	"/>
<path class="st5" d="M32.5,50c-1.4,0-2.5-1.1-2.5-2.5V45c0-1.4,1.1-2.5,2.5-2.5c1.4,0,2.5,1.1,2.5,2.5v2.5C35,48.9,33.9,50,32.5,50z
	"/>
<path class="st6" d="M75,147.5c-5.5,0-10-4.5-10-10s4.5-10,10-10s10,4.5,10,10S80.5,147.5,75,147.5z M75,132.5c-2.8,0-5,2.2-5,5
	s2.2,5,5,5s5-2.2,5-5S77.8,132.5,75,132.5z"/>
<path class="st7" d="M49.5,75c-0.5,0-1.1-0.2-1.6-0.6c-1.1-0.9-1.2-2.4-0.4-3.5l10-12.5c0.9-1.1,2.4-1.2,3.5-0.4
	c1.1,0.9,1.2,2.4,0.4,3.5L51.4,74C50.9,74.7,50.2,75,49.5,75z"/>
<path class="st7" d="M59.5,87.5c-0.7,0-1.5-0.3-2-0.9l-10-12.5c-0.9-1.1-0.7-2.7,0.4-3.5c1.1-0.9,2.7-0.7,3.5,0.4l10,12.5
	c0.9,1.1,0.7,2.7-0.4,3.5C60.6,87.3,60,87.5,59.5,87.5z"/>
<path class="st7" d="M104.5,75c-0.7,0-1.5-0.3-1.9-0.9l-10-12.5c-0.9-1.1-0.7-2.7,0.4-3.5c1.1-0.9,2.7-0.7,3.5,0.4l10,12.5
	c0.9,1.1,0.7,2.7-0.4,3.5C105.6,74.8,105.1,75,104.5,75L104.5,75z"/>
<path class="st7" d="M94.5,87.5c-0.6,0-1.1-0.2-1.6-0.6c-1.1-0.9-1.2-2.4-0.4-3.5l10-12.5c0.9-1.1,2.4-1.2,3.5-0.4
	c1.1,0.9,1.2,2.4,0.4,3.5l-10,12.5C96,87.2,95.2,87.5,94.5,87.5L94.5,87.5z"/>
<path class="st7" d="M69.5,100c-0.2,0-0.5,0-0.8-0.1c-1.3-0.4-2.1-1.8-1.6-3.1l15-47.5c0.4-1.3,1.8-2,3.1-1.6s2.1,1.8,1.6,3.1
	l-15,47.5C71.6,99.3,70.6,100,69.5,100L69.5,100z"/>
<path class="st8" d="M12.5,25c-1.4,0-2.5-1.1-2.5-2.5c0-4.1-3.4-7.5-7.5-7.5C1.1,15,0,13.9,0,12.5S1.1,10,2.5,10
	C6.6,10,10,6.6,10,2.5C10,1.1,11.1,0,12.5,0S15,1.1,15,2.5c0,4.1,3.4,7.5,7.5,7.5c1.4,0,2.5,1.1,2.5,2.5S23.9,15,22.5,15
	c-4.1,0-7.5,3.4-7.5,7.5C15,23.9,13.9,25,12.5,25z M10,12.5c0.9,0.7,1.8,1.6,2.5,2.5c0.7-0.9,1.6-1.8,2.5-2.5
	c-0.9-0.7-1.8-1.6-2.5-2.5C11.8,10.9,10.9,11.8,10,12.5z"/>
<path class="st9" d="M135,50c-1.4,0-2.5-1.1-2.5-2.5v-10c0-1.4,1.1-2.5,2.5-2.5s2.5,1.1,2.5,2.5v10C137.5,48.9,136.4,50,135,50z"/>
<path class="st9" d="M140,45h-10c-1.4,0-2.5-1.1-2.5-2.5s1.1-2.5,2.5-2.5h10c1.4,0,2.5,1.1,2.5,2.5S141.4,45,140,45z"/>
<path class="st7" d="M20,110c0,1.4-1.1,2.5-2.5,2.5S15,111.4,15,110s1.1-2.5,2.5-2.5S20,108.6,20,110"/>
<path class="st7" d="M7.5,65c0,1.4-1.1,2.5-2.5,2.5S2.5,66.4,2.5,65s1.1-2.5,2.5-2.5S7.5,63.6,7.5,65"/>
<path class="st7" d="M130,90c0,1.4-1.1,2.5-2.5,2.5S125,91.4,125,90s1.1-2.5,2.5-2.5C128.9,87.5,130,88.6,130,90"/>
<path class="st7" d="M147.5,142.5c0,1.4-1.1,2.5-2.5,2.5s-2.5-1.1-2.5-2.5s1.1-2.5,2.5-2.5S147.5,141.1,147.5,142.5"/>
</svg>
