<?xml version="1.0" encoding="UTF-8"?>
<svg id="Layer_2" data-name="Layer 2" xmlns="http://www.w3.org/2000/svg" viewBox="0 0 101.45 122.85">
  <defs>
    <style>
      .cls-1 {
        fill: #42a3cc;
      }

      .cls-1, .cls-2, .cls-3, .cls-4, .cls-5 {
        fill-rule: evenodd;
      }

      .cls-6, .cls-2 {
        fill: #fff;
      }

      .cls-3 {
        fill: #e22952;
      }

      .cls-4 {
        fill: #25a700;
      }

      .cls-5 {
        fill: #efaa3a;
      }
    </style>
  </defs>
  <g id="Layer_1-2" data-name="Layer 1">
    <g>
      <path class="cls-6" d="M42.59,114.51c8.08,1.07,16.29-.01,23.82-3.13,2.92-1.2,5.72-2.66,8.37-4.38l.7,6.9c-2.16,1.24-4.4,2.33-6.71,3.27-8.53,3.53-17.85,4.74-27,3.52-9.88-1.42-19.02-6.05-26-13.18-7.39-7.51-12.46-16.98-14.62-27.29-2.67-12.62-.64-25.77,5.71-37,6.35-11.35,16.58-20.04,28.82-24.46,3.94-1.58,8.21-2.18,12.43-1.76,3.73,.41,7.11,2.36,9.34,5.38,.13,.19,.24,.38,.33,.59,2.91,6.65-.63,10.82-4,14.8-2,2.3-3.81,4.5-2.71,6.6,.46,.9,1.61,1.58,3.26,2,2.61,.57,5.31,.61,7.93,.11,2.58-.41,5.25-1,7.79-1.51,1.54-.33,3-.65,4.5-.93l-2,6.81-1.22,.26c-2.52,.53-5.17,1.09-8.11,1.56-3.47,.63-7.04,.55-10.48-.23-3.38-.88-5.92-2.65-7.24-5.18-3.05-5.85,.14-9.61,3.47-13.55,2.07-2.44,4.24-5,3.19-7.92-1.24-1.47-3.01-2.4-4.92-2.59-3.22-.29-6.46,.19-9.46,1.4-10.81,3.93-19.84,11.61-25.45,21.64-5.59,9.92-7.37,21.54-5,32.68,1.9,9.13,6.37,17.53,12.9,24.2,6,6.15,13.86,10.15,22.36,11.39Z"/>
      <path class="cls-5" d="M22.09,55.71c1.82,4.63,7.05,6.9,11.67,5.08,4.63-1.82,6.9-7.05,5.08-11.67-1.8-4.59-6.96-6.87-11.57-5.12-4.65,1.76-6.98,6.96-5.22,11.61,.01,.03,.03,.07,.04,.1Z"/>
      <path class="cls-4" d="M16.75,82.51c1.8,4.69,7.07,7.03,11.76,5.23,4.69-1.8,7.03-7.07,5.23-11.76-1.8-4.69-7.06-7.03-11.75-5.24-4.69,1.81-7.02,7.07-5.22,11.76h-.02Z"/>
      <path class="cls-3" d="M62.06,81.66c1.69,4.39,6.12,7.1,10.8,6.6l-2.11-20.69c-.93,.09-1.85,.31-2.72,.65-5.36,2.04-8.05,8.04-6.01,13.41,0,.01,0,.02,.01,.03h.03Z"/>
      <path class="cls-2" d="M89.51,0c-.77,12.18-16.75,19.69-11.11,32.37,1.64,3.59,4.71,6.34,8.46,7.57,2.17,.69,4.52,.54,6.58-.42,8.3-3.76,9.29-13.94,6.84-21.77-2.29-7.21-7.21-13.58-10.77-17.75Zm10.66,62.89c-6.55,1.52-13.35,1.58-19.92,.19l5.4,52.92c.04,1.14,.23,2.27,.56,3.36,.94,2.71,3.9,4.14,6.61,3.2,.73-.25,1.39-.66,1.93-1.2,.92-1.09,1.42-2.46,1.43-3.88l4-54.6h-.01Zm-5.4-17.82c-2.51,1-7,1.59-10.21,0l-4.21,14.52c7,1.56,13.82,1.85,20.38,0-3.26-6.33-3.52-7-6-14.47l.04-.05Z"/>
      <path class="cls-1" d="M40.74,101.59c1.8,4.69,7.06,7.04,11.76,5.24,4.69-1.8,7.04-7.06,5.24-11.76-1.8-4.69-7.05-7.03-11.74-5.24-4.69,1.81-7.02,7.07-5.22,11.76h-.03Z"/>
    </g>
  </g>
</svg>