<?xml version="1.0" encoding="UTF-8"?>
<svg id="Layer_2" data-name="Layer 2" xmlns="http://www.w3.org/2000/svg" viewBox="0 0 142.2 142.2">
  <defs>
    <style>
      .cls-1 {
        fill: #fff;
      }

      .cls-2 {
        fill: #1c75bc;
      }
    </style>
  </defs>
  <g id="Layer_1-2" data-name="Layer 1">
    <path class="cls-2" d="M130.73,27.52h-36.7c0,2.53-2.05,4.59-4.59,4.59h-6.88l4.59,36.7h9.17v9.17h4.59v9.17H41.28v-9.17h4.59v-9.17h9.17l4.59-36.7h-6.88c-2.53,0-4.59-2.05-4.59-4.59H11.47c-1.27,0-2.29,1.03-2.29,2.29V107.8h123.85V29.82c0-1.27-1.03-2.29-2.29-2.29Z"/>
    <g>
      <path class="cls-1" d="M74.56,59.92c.14,1.16,1.13,2.01,2.27,2.01,.09,0,.19,0,.29-.02,1.26-.16,2.15-1.3,1.99-2.56l-2.29-18.35c-.16-1.26-1.3-2.15-2.56-1.99-1.26,.16-2.15,1.3-1.99,2.56l2.29,18.35Z"/>
      <path class="cls-1" d="M130.73,18.35h-9.17c-1.27,0-2.29,1.03-2.29,2.29s1.03,2.29,2.29,2.29h9.17c3.79,0,6.88,3.09,6.88,6.88V105.5H4.59V29.82c0-3.79,3.09-6.88,6.88-6.88h9.17c1.27,0,2.29-1.03,2.29-2.29s-1.03-2.29-2.29-2.29H11.47C5.14,18.35,0,23.49,0,29.82V116.97c0,6.32,5.14,11.47,11.47,11.47h27.52v9.17h-9.17c-1.27,0-2.29,1.03-2.29,2.29s1.03,2.29,2.29,2.29H112.38c1.27,0,2.29-1.03,2.29-2.29s-1.03-2.29-2.29-2.29h-9.17v-9.17h27.52c6.32,0,11.47-5.14,11.47-11.47V29.82c0-6.32-5.14-11.47-11.47-11.47Zm-32.11,119.26H43.58v-9.17h55.05v9.17Zm32.11-13.76H11.47c-3.79,0-6.88-3.09-6.88-6.88v-6.88H137.61v6.88c0,3.79-3.09,6.88-6.88,6.88Z"/>
      <path class="cls-1" d="M38.99,22.94h6.88v4.59c0,3.79,3.09,6.88,6.88,6.88h4.28l-4.01,32.11h-7.15c-1.27,0-2.29,1.03-2.29,2.29v6.88h-2.29c-1.27,0-2.29,1.03-2.29,2.29v9.17c0,1.27,1.03,2.29,2.29,2.29h59.63c1.27,0,2.29-1.03,2.29-2.29v-9.17c0-1.27-1.03-2.29-2.29-2.29h-2.29v-6.88c0-1.27-1.03-2.29-2.29-2.29h-7.15l-4.01-32.11h4.28c3.79,0,6.88-3.09,6.88-6.88v-4.59h6.88c1.27,0,2.29-1.03,2.29-2.29s-1.03-2.29-2.29-2.29h-6.88V9.17c0-1.27-1.03-2.29-2.29-2.29h-9.17c-1.27,0-2.29,1.03-2.29,2.29v11.47h-4.59V9.17c0-1.27-1.03-2.29-2.29-2.29h-9.17c-1.27,0-2.29,1.03-2.29,2.29v11.47h-4.59V9.17c0-1.27-1.03-2.29-2.29-2.29h-9.17c-1.27,0-2.29,1.03-2.29,2.29v9.17h-6.88c-1.27,0-2.29,1.03-2.29,2.29s1.03,2.29,2.29,2.29Zm59.63,61.93H43.58v-4.59h55.05v4.59Zm-4.59-9.17H48.16v-4.59h45.87v4.59Zm-9.48-9.17h-26.91l4.01-32.11h18.89l4.01,32.11ZM50.46,11.47h4.59v11.47c0,1.27,1.03,2.29,2.29,2.29h9.17c1.27,0,2.29-1.03,2.29-2.29V11.47h4.59v11.47c0,1.27,1.03,2.29,2.29,2.29h9.17c1.27,0,2.29-1.03,2.29-2.29V11.47h4.59V27.52c0,1.26-1.03,2.29-2.29,2.29H52.75c-1.27,0-2.29-1.03-2.29-2.29V11.47Z"/>
      <circle class="cls-1" cx="112.38" cy="2.29" r="2.29"/>
      <circle class="cls-1" cx="121.56" cy="48.16" r="2.29"/>
      <path class="cls-1" d="M91.74,38.99c0,1.27,1.03,2.29,2.29,2.29h18.35c1.27,0,2.29-1.03,2.29-2.29V11.47c0-1.27-1.03-2.29-2.29-2.29s-2.29,1.03-2.29,2.29v25.23h-16.05c-1.27,0-2.29,1.03-2.29,2.29Z"/>
      <circle class="cls-1" cx="112.38" cy="84.86" r="2.29"/>
      <path class="cls-1" d="M114.68,57.34c0-1.27-1.03-2.29-2.29-2.29h-18.35c-1.27,0-2.29,1.03-2.29,2.29s1.03,2.29,2.29,2.29h16.05v16.05c0,1.27,1.03,2.29,2.29,2.29s2.29-1.03,2.29-2.29v-18.35Z"/>
      <path class="cls-1" d="M112.38,45.87h-18.35c-1.27,0-2.29,1.03-2.29,2.29s1.03,2.29,2.29,2.29h18.35c1.27,0,2.29-1.03,2.29-2.29s-1.03-2.29-2.29-2.29Z"/>
      <circle class="cls-1" cx="29.82" cy="2.29" r="2.29"/>
      <circle class="cls-1" cx="20.64" cy="48.16" r="2.29"/>
      <path class="cls-1" d="M29.82,41.28h18.35c1.27,0,2.29-1.03,2.29-2.29s-1.03-2.29-2.29-2.29h-16.05V11.47c0-1.27-1.03-2.29-2.29-2.29s-2.29,1.03-2.29,2.29v27.52c0,1.27,1.03,2.29,2.29,2.29Z"/>
      <circle class="cls-1" cx="29.82" cy="84.86" r="2.29"/>
      <path class="cls-1" d="M29.82,77.98c1.27,0,2.29-1.03,2.29-2.29v-16.05h16.05c1.27,0,2.29-1.03,2.29-2.29s-1.03-2.29-2.29-2.29H29.82c-1.27,0-2.29,1.03-2.29,2.29v18.35c0,1.27,1.03,2.29,2.29,2.29Z"/>
      <path class="cls-1" d="M29.82,50.46h18.35c1.27,0,2.29-1.03,2.29-2.29s-1.03-2.29-2.29-2.29H29.82c-1.27,0-2.29,1.03-2.29,2.29s1.03,2.29,2.29,2.29Z"/>
      <path class="cls-1" d="M89.45,114.68H52.75c-1.27,0-2.29,1.03-2.29,2.29s1.03,2.29,2.29,2.29h36.7c1.27,0,2.29-1.03,2.29-2.29s-1.03-2.29-2.29-2.29Z"/>
    </g>
  </g>
</svg>