<?xml version="1.0" encoding="UTF-8"?>
<svg id="Layer_2" data-name="Layer 2" xmlns="http://www.w3.org/2000/svg" viewBox="0 0 172.57 155.53">
  <defs>
    <style>
      .cls-1 {
        fill: #939393;
      }

      .cls-2 {
        fill: #fff;
      }

      .cls-3 {
        fill: #be1e2d;
      }

      .cls-4 {
        fill: #c9c9c9;
      }

      .cls-5 {
        fill: #6d6e71;
      }

      .cls-6 {
        fill: none;
        stroke: #fff;
        stroke-miterlimit: 10;
        stroke-width: 2px;
      }

      .cls-7 {
        fill: #aaa;
      }

      .cls-8 {
        fill: #636363;
      }

      .cls-9 {
        fill: #bcbec0;
      }

      .cls-10 {
        fill: #231f20;
      }

      .cls-11 {
        fill: #1c75bc;
      }
    </style>
  </defs>
  <g id="Layer_1-2" data-name="Layer 1">
    <g>
      <path class="cls-6" d="M1.16,108.8V4.37c0-1.85,1.56-3.37,3.47-3.37H167.95c1.91,0,3.47,1.52,3.47,3.37V108.8H1.16Z"/>
      <path class="cls-9" d="M172.57,108.8v14.37c0,1.98-1.59,3.59-3.52,3.59H3.52c-1.93,0-3.52-1.62-3.52-3.59v-14.37H172.57Z"/>
      <polygon class="cls-4" points="61.09 151.92 111.39 151.92 107.8 126.77 64.68 126.77 61.09 151.92"/>
      <polygon class="cls-7" points="107.8 126.77 64.68 126.77 62.44 142.45 108.64 132.63 107.8 126.77"/>
      <rect class="cls-8" x="48.51" y="151.93" width="75.46" height="3.59"/>
      <polygon class="cls-1" points="64.68 126.77 107.8 126.77 108.04 128.47 63.56 134.61 64.68 126.77"/>
      <g>
        <circle class="cls-11" cx="21.56" cy="15.39" r="3.59"/>
        <circle class="cls-11" cx="50.31" cy="15.39" r="3.59"/>
        <circle class="cls-11" cx="35.93" cy="15.39" r="3.59"/>
      </g>
      <rect class="cls-5" x="61.09" y="13.58" width="93.43" height="3.59"/>
      <g>
        <rect class="cls-3" x="40.21" y="32.09" width="77.94" height="60.39"/>
        <polygon class="cls-3" points="109.63 75.56 125.96 78.72 125.96 45.83 109.63 49 109.63 75.56"/>
      </g>
      <rect class="cls-10" x="47.4" y="43.02" width="63.9" height="38.53"/>
      <g>
        <rect class="cls-2" x="106.02" y="36.52" width="5.28" height="3.69"/>
        <rect class="cls-2" x="96.25" y="36.52" width="5.28" height="3.69"/>
        <rect class="cls-2" x="86.49" y="36.52" width="5.28" height="3.69"/>
        <rect class="cls-2" x="76.71" y="36.52" width="5.28" height="3.69"/>
        <rect class="cls-2" x="66.94" y="36.52" width="5.28" height="3.69"/>
        <rect class="cls-2" x="57.17" y="36.52" width="5.28" height="3.69"/>
        <rect class="cls-2" x="47.4" y="36.52" width="5.28" height="3.69"/>
        <rect class="cls-2" x="106.02" y="84.34" width="5.28" height="3.69"/>
        <rect class="cls-2" x="96.25" y="84.34" width="5.28" height="3.69"/>
        <rect class="cls-2" x="86.49" y="84.34" width="5.28" height="3.69"/>
        <rect class="cls-2" x="76.71" y="84.34" width="5.28" height="3.69"/>
        <rect class="cls-2" x="66.94" y="84.34" width="5.28" height="3.69"/>
        <rect class="cls-2" x="57.17" y="84.34" width="5.28" height="3.69"/>
        <rect class="cls-2" x="47.4" y="84.34" width="5.28" height="3.69"/>
        <polygon class="cls-2" points="75.41 55.31 75.41 69.25 88.46 62.28 75.41 55.31"/>
      </g>
      <path class="cls-3" d="M80.5,49.35c7.13,0,12.93,5.8,12.93,12.93s-5.8,12.93-12.93,12.93-12.93-5.8-12.93-12.93,5.8-12.93,12.93-12.93m0-1.8c-8.13,0-14.72,6.59-14.72,14.72s6.59,14.72,14.72,14.72,14.72-6.59,14.72-14.72-6.59-14.72-14.72-14.72h0Z"/>
      <rect class="cls-3" x="125.95" y="41.75" width="6.32" height="41.05"/>
    </g>
  </g>
</svg>